<?xml version="1.0" encoding="UTF-8"?>
<svg version="1.1" xmlns="http://www.w3.org/2000/svg" width="24" height="24">
<path d="M0 0 C-0.56959153 3.62613199 -1.92374534 5.25517741 -4.5625 7.75 C-5.20316406 8.36359375 -5.84382812 8.9771875 -6.50390625 9.609375 C-7.24447266 10.29773438 -7.24447266 10.29773438 -8 11 C-6.34824096 14.71244871 -4.21937896 16.84998596 -1.2421875 19.53515625 C0 21 0 21 0 24 C-4.54359502 23.51491868 -6.65945738 21.93391433 -9.875 18.75 C-10.67679688 17.98171875 -11.47859375 17.2134375 -12.3046875 16.421875 C-14 14 -14 14 -14.02734375 11.50390625 C-12.74290531 8.3733928 -11.09283057 6.56133688 -8.6875 4.1875 C-7.51767578 3.00220703 -7.51767578 3.00220703 -6.32421875 1.79296875 C-4 0 -4 0 0 0 Z " fill="#FFFFFF" transform="translate(19,0)"/>
</svg>
